# xmcd
# 
# Track frame offsets:
#     150
#     17475
#     32320
#     51630
#     69255
#     83827
#     108710
#     125140
#     139567
#     157040
#     170022
#     186207
# 
# Disc length: 2667
# 
# Revision: 6
# Processed by: cddbd v1.5.2PL0 Copyright (c) Steve Scherf et al.
# Submitted via: BonkEnc v1.0.8
# 
DISCID=a30a690c
DTITLE=Hound Dog Taylor - Hound Dog Taylor and The Houserockers
DYEAR=1971
DGENRE=Blues
TTITLE0=She's Gone
TTITLE1=Walking The Ceiling
TTITLE2=Held My Baby Last Night
TTITLE3=Taylor's Rock
TTITLE4=Its Alright
TTITLE5=Phillip's Theme
TTITLE6=Wild About You, Baby
TTITLE7=I Just Can't Make It
TTITLE8=It Hurts Me Too
TTITLE9=44 Blues
TTITLE10=Give Me Back My Wig
TTITLE11=55th Street Boogie
EXTD=ALCD 4701\n\nSubmitted 6/20/97\n[Jmccoy@efn.org] YEAR: 1971
EXTT0=
EXTT1=
EXTT2=
EXTT3=
EXTT4=
EXTT5=
EXTT6=
EXTT7=
EXTT8=
EXTT9=
EXTT10=
EXTT11=
PLAYORDER=
